HIERARCHY
ROOT joint_Root
{
	OFFSET 0.0 0.0 0.0
	CHANNELS 6 Xposition Yposition Zposition Zrotation Xrotation Yrotation 
	JOINT Hips
	{
		OFFSET 4.5925 91.4895 -427.239
		CHANNELS 6 Xposition Yposition Zposition Zrotation Xrotation Yrotation 
		JOINT Spine
		{
			OFFSET 15.7357 0.0 0.0
			CHANNELS 6 Xposition Yposition Zposition Zrotation Xrotation Yrotation 
			JOINT Chest
			{
				OFFSET 8.98455 -0.406207 0.0
				CHANNELS 6 Xposition Yposition Zposition Zrotation Xrotation Yrotation 
				JOINT Neck
				{
					OFFSET 16.3773 0.0 0.0
					CHANNELS 6 Xposition Yposition Zposition Zrotation Xrotation Yrotation 
					JOINT Head
					{
						OFFSET 6.45672 0.0 0.0
						CHANNELS 6 Xposition Yposition Zposition Zrotation Xrotation Yrotation 
						End Site
						{
							OFFSET 0.0 0.0 0.0
						}
					}
				}
				JOINT Shoulder_L
				{
					OFFSET 12.9942 -0.242716 4.98039
					CHANNELS 6 Xposition Yposition Zposition Zrotation Xrotation Yrotation 
					JOINT UpperArm_L
					{
						OFFSET 5.34809 0.0 0.0
						CHANNELS 6 Xposition Yposition Zposition Zrotation Xrotation Yrotation 
						JOINT LowerArm_L
						{
							OFFSET 24.3286 1.87007e-05 0.0
							CHANNELS 6 Xposition Yposition Zposition Zrotation Xrotation Yrotation 
							JOINT Hand_L
							{
								OFFSET 22.2916 0.0 0.0
								CHANNELS 6 Xposition Yposition Zposition Zrotation Xrotation Yrotation 
								End Site
								{
									OFFSET 0.0 0.0 0.0
								}
							}
						}
					}
				}
				JOINT Shoulder_R
				{
					OFFSET 12.9945 -0.242716 -4.98039
					CHANNELS 6 Xposition Yposition Zposition Zrotation Xrotation Yrotation 
					JOINT UpperArm_R
					{
						OFFSET -5.34813 0.0 0.0
						CHANNELS 6 Xposition Yposition Zposition Zrotation Xrotation Yrotation 
						JOINT LowerArm_R
						{
							OFFSET -24.3289 0.000322201 0.0
							CHANNELS 6 Xposition Yposition Zposition Zrotation Xrotation Yrotation 
							JOINT Hand_R
							{
								OFFSET -22.2915 -0.000108084 0.0
								CHANNELS 6 Xposition Yposition Zposition Zrotation Xrotation Yrotation 
								End Site
								{
									OFFSET 0.0 0.0 0.0
								}
							}
						}
					}
				}
			}
		}
		JOINT UpperLeg_L
		{
			OFFSET -2.19248 -6.46944 0.0
			CHANNELS 6 Xposition Yposition Zposition Zrotation Xrotation Yrotation 
			JOINT LowerLeg_L
			{
				OFFSET 39.0811 0.0 -1.23785e-05
				CHANNELS 6 Xposition Yposition Zposition Zrotation Xrotation Yrotation 
				JOINT Foot_L
				{
					OFFSET 40.9854 0.0 -1.26872e-05
					CHANNELS 6 Xposition Yposition Zposition Zrotation Xrotation Yrotation 
					JOINT Toes_L
					{
						OFFSET 11.7543 0.0 0.0
						CHANNELS 6 Xposition Yposition Zposition Zrotation Xrotation Yrotation 
						End Site
						{
							OFFSET 0.0 0.0 0.0
						}
					}
				}
			}
		}
		JOINT UpperLeg_R
		{
			OFFSET -2.19251 6.46944 0.0
			CHANNELS 6 Xposition Yposition Zposition Zrotation Xrotation Yrotation 
			JOINT LowerLeg_R
			{
				OFFSET -39.0811 -0.00228153 -0.0401928
				CHANNELS 6 Xposition Yposition Zposition Zrotation Xrotation Yrotation 
				JOINT Foot_R
				{
					OFFSET -40.9854 0.0 0.0
					CHANNELS 6 Xposition Yposition Zposition Zrotation Xrotation Yrotation 
					JOINT Toes_R
					{
						OFFSET -11.7543 0.0 0.0
						CHANNELS 6 Xposition Yposition Zposition Zrotation Xrotation Yrotation 
						End Site
						{
							OFFSET 0.0 0.0 0.0
						}
					}
				}
			}
		}
	}
}
MOTION
Frames:	7
Frame Time:	0.0333333
0.000000 0.000000 0.000000 0.000000 0.000000 -0.000000 1.135290 90.581400 0.997141 89.757200 -4.554390 12.181200 15.735700 0.000005 -0.000001 89.689600 80.882100 -90.856300 8.984550 -0.406207 -0.000000 10.469200 -0.125623 -2.320490 16.377300 -0.000001 -0.000001 4.086700 -3.306900 0.111730 6.456720 -0.000001 -0.000000 -8.055990 -1.776670 -8.396060 12.994200 -0.242716 4.980390 -91.346400 5.718190 -76.727500 5.348090 -0.000007 -0.000001 -59.587000 39.333000 -19.933800 24.328600 0.000019 0.000005 7.206570 19.094300 -21.133300 22.291600 -0.000001 0.000005 6.971430 5.263040 1.085660 12.994500 -0.242716 -4.980390 89.288200 8.644960 -85.274800 -5.348130 -0.000001 -0.000004 -64.532400 34.019400 -15.425200 -24.328900 0.000322 -0.000009 1.688120 4.307200 -21.437800 -22.291500 -0.000108 -0.000004 11.702100 5.386720 -2.510680 -2.192480 -6.469440 -0.000000 -174.805000 -14.548600 3.120780 39.081100 -0.000007 -0.000012 -0.154125 0.255022 31.147200 40.985400 -0.000006 -0.000013 1.364130 5.392370 -71.807400 11.754300 -0.000000 0.000003 -0.000216 -0.001977 -16.652000 -2.192510 6.469440 -0.000001 171.008000 20.759900 -176.556000 -39.081100 -0.002282 -0.040193 -0.214765 0.363777 30.940700 -40.985400 0.000008 0.000006 2.662540 15.233300 -71.161600 -11.754300 -0.000006 -0.000006 -0.002417 -0.033820 -17.948400
0.000000 0.000000 0.000000 0.000000 0.000000 -0.000000 1.190690 90.585700 0.931548 89.763100 -4.570750 12.154100 15.735700 0.000005 -0.000001 89.890600 80.930300 -91.085700 8.984550 -0.406207 -0.000000 10.373900 -0.061554 -2.382960 16.377300 -0.000001 -0.000001 4.174440 -3.256530 0.068517 6.456720 -0.000001 -0.000000 -7.874510 -1.711400 -8.955430 12.994200 -0.242716 4.980390 -91.320900 5.618450 -76.747100 5.348090 -0.000007 -0.000001 -59.685200 39.050100 -19.820000 24.328600 0.000019 0.000005 7.201750 19.344500 -20.880200 22.291600 -0.000001 0.000005 6.891170 5.267360 0.969542 12.994500 -0.242716 -4.980390 89.296500 8.438140 -85.216500 -5.348130 -0.000001 -0.000004 -64.460000 33.186200 -15.534100 -24.328900 0.000322 -0.000009 1.914520 4.726870 -22.090400 -22.291500 -0.000108 -0.000004 11.042000 5.380650 -2.318720 -2.192480 -6.469440 -0.000000 -174.860000 -14.606000 3.017520 39.081100 -0.000007 -0.000012 -0.152561 0.252185 31.172200 40.985400 -0.000006 -0.000013 1.428010 5.429870 -71.768600 11.754300 -0.000000 0.000003 -0.000225 -0.002041 -16.654300 -2.192510 6.469440 -0.000001 170.994000 20.758100 -176.640000 -39.081100 -0.002282 -0.040193 -0.215910 0.365667 30.942200 -40.985400 0.000008 0.000006 2.594050 15.227300 -71.090200 -11.754300 -0.000006 -0.000006 -0.002529 -0.035152 -18.002600
0.000000 0.000000 0.000000 0.000000 0.000000 -0.000000 1.268390 90.595800 0.861821 89.747900 -4.661180 12.200600 15.735700 0.000005 -0.000001 90.130200 80.953700 -91.340700 8.984550 -0.406207 -0.000000 10.327900 0.013810 -2.420740 16.377300 -0.000001 -0.000001 4.290620 -3.205980 -0.014645 6.456720 -0.000001 -0.000000 -7.719180 -1.647040 -9.375080 12.994200 -0.242716 4.980390 -91.316000 5.552300 -76.643400 5.348090 -0.000007 -0.000001 -59.717000 38.926300 -19.659000 24.328600 0.000019 0.000005 7.150870 19.307200 -20.779100 22.291600 -0.000001 0.000005 7.016280 5.264960 1.033990 12.994500 -0.242716 -4.980390 89.283800 8.263590 -85.029300 -5.348130 -0.000001 -0.000004 -64.116400 31.865700 -15.830900 -24.328900 0.000322 -0.000009 1.997160 4.664720 -23.220300 -22.291500 -0.000108 -0.000004 10.445500 5.372640 -2.067910 -2.192480 -6.469440 -0.000000 -174.878000 -14.706800 3.029210 39.081100 -0.000007 -0.000012 -0.150805 0.249374 31.163000 40.985400 -0.000006 -0.000013 1.476150 5.382890 -71.728200 11.754300 -0.000000 0.000003 -0.000203 -0.001872 -16.648100 -2.192510 6.469440 -0.000001 170.986000 20.665500 -176.660000 -39.081100 -0.002282 -0.040193 -0.211422 0.358727 30.903600 -40.985400 0.000008 0.000006 2.513920 15.295600 -70.974500 -11.754300 -0.000006 -0.000006 -0.002351 -0.033030 -17.916200
0.000000 0.000000 0.000000 0.000000 0.000000 -0.000000 1.356490 90.603200 0.790252 89.715200 -4.735540 12.195800 15.735700 0.000005 -0.000001 90.172600 80.992400 -91.391300 8.984550 -0.406207 -0.000000 10.250500 0.027505 -2.438240 16.377300 -0.000001 -0.000001 4.426360 -3.140720 -0.091158 6.456720 -0.000001 -0.000000 -7.556600 -1.561990 -9.752530 12.994200 -0.242716 4.980390 -91.311100 5.514080 -76.602600 5.348090 -0.000007 -0.000001 -59.877200 38.556600 -19.304400 24.328600 0.000019 0.000005 7.155370 19.391600 -20.711500 22.291600 -0.000001 0.000005 6.949040 5.263260 1.079630 12.994500 -0.242716 -4.980390 89.250500 8.135150 -84.718000 -5.348130 -0.000001 -0.000004 -63.306000 30.114400 -16.529000 -24.328900 0.000322 -0.000009 2.189650 4.710090 -24.978100 -22.291500 -0.000108 -0.000004 9.572700 5.366500 -1.878710 -2.192480 -6.469440 -0.000000 -174.899000 -14.794200 2.970440 39.081100 -0.000007 -0.000012 -0.148056 0.244641 31.182400 40.985400 -0.000006 -0.000013 1.532810 5.346860 -71.700700 11.754300 -0.000000 0.000003 -0.000218 -0.001992 -16.652500 -2.192510 6.469440 -0.000001 170.987000 20.659400 -176.723000 -39.081100 -0.002282 -0.040193 -0.209692 0.356073 30.886800 -40.985400 0.000008 0.000006 2.560950 15.359000 -70.913000 -11.754300 -0.000006 -0.000006 -0.002451 -0.034228 -17.965000
0.000000 0.000000 0.000000 0.000000 0.000000 -0.000000 1.477960 90.616000 0.704959 89.707000 -4.887690 12.152900 15.735700 0.000005 -0.000001 90.077300 81.022400 -91.298800 8.984550 -0.406207 -0.000000 10.190300 -0.001743 -2.441260 16.377300 -0.000001 -0.000001 4.550000 -3.056970 -0.059381 6.456720 -0.000001 -0.000000 -7.439110 -1.353090 -10.259700 12.994200 -0.242716 4.980390 -91.336700 5.590240 -76.529100 5.348090 -0.000007 -0.000001 -59.905300 38.235600 -18.923500 24.328600 0.000019 0.000005 7.133220 19.304700 -20.734000 22.291600 -0.000001 0.000005 6.990600 5.260710 1.148150 12.994500 -0.242716 -4.980390 89.210100 7.997640 -84.340400 -5.348130 -0.000001 -0.000004 -62.102000 27.723100 -17.744200 -24.328900 0.000322 -0.000009 2.628840 5.088910 -27.376500 -22.291500 -0.000108 -0.000004 9.038650 5.356040 -1.559040 -2.192480 -6.469440 -0.000000 -174.983000 -14.924700 2.879490 39.081100 -0.000007 -0.000012 -0.143943 0.237991 31.166800 40.985400 -0.000006 -0.000013 1.613010 5.284530 -71.651800 11.754300 -0.000000 0.000003 -0.000215 -0.001970 -16.651700 -2.192510 6.469440 -0.000001 170.985000 20.588400 -176.867000 -39.081100 -0.002282 -0.040193 -0.206792 0.351538 30.864300 -40.985400 0.000008 0.000006 2.560990 15.431100 -70.805000 -11.754300 -0.000006 -0.000006 -0.002493 -0.034732 -17.985500
0.000000 0.000000 0.000000 0.000000 0.000000 -0.000000 1.604270 90.619400 0.632668 89.684700 -5.079590 12.174600 15.735700 0.000005 -0.000001 89.873800 81.000900 -91.098000 8.984550 -0.406207 -0.000000 10.232600 -0.065728 -2.440940 16.377300 -0.000001 -0.000001 4.630790 -2.984660 0.006487 6.456720 -0.000001 -0.000000 -7.248260 -1.114880 -10.639200 12.994200 -0.242716 4.980390 -91.372500 5.711080 -76.463000 5.348090 -0.000007 -0.000001 -59.811700 37.912000 -18.663400 24.328600 0.000019 0.000005 7.199390 19.551300 -20.679500 22.291600 -0.000001 0.000005 6.962920 5.262480 1.100600 12.994500 -0.242716 -4.980390 89.163900 7.853590 -83.903900 -5.348130 -0.000001 -0.000004 -60.498500 24.989500 -19.489600 -24.328900 0.000322 -0.000009 2.871090 4.892150 -30.468600 -22.291500 -0.000108 -0.000004 8.931590 5.345530 -1.243610 -2.192480 -6.469440 -0.000000 -175.020000 -15.093200 2.864690 39.081100 -0.000007 -0.000012 -0.140039 0.231340 31.188300 40.985400 -0.000006 -0.000013 1.696850 5.232190 -71.644500 11.754300 -0.000000 0.000003 -0.000217 -0.001981 -16.652100 -2.192510 6.469440 -0.000001 170.920000 20.580700 -176.923000 -39.081100 -0.002282 -0.040193 -0.207359 0.352829 30.839900 -40.985400 0.000008 0.000006 2.429780 15.648600 -70.661600 -11.754300 -0.000006 -0.000006 -0.002433 -0.034012 -17.956200
0.000000 0.000000 0.000000 0.000000 0.000000 -0.000000 1.764330 90.621200 0.555320 89.691200 -5.316720 12.216400 15.735700 0.000005 -0.000001 89.665900 80.946800 -90.904300 8.984550 -0.406207 -0.000000 10.339900 -0.132649 -2.463170 16.377300 -0.000001 -0.000001 4.663570 -2.908860 0.060837 6.456720 -0.000001 -0.000000 -6.975430 -0.936191 -10.878800 12.994200 -0.242716 4.980390 -91.423500 5.910760 -76.433800 5.348090 -0.000007 -0.000001 -59.567300 37.623700 -18.512500 24.328600 0.000019 0.000005 7.160870 19.579400 -20.551200 22.291600 -0.000001 0.000005 6.931520 5.262990 1.086990 12.994500 -0.242716 -4.980390 89.100200 7.720110 -83.331700 -5.348130 -0.000001 -0.000004 -58.652000 21.878300 -21.812900 -24.328900 0.000322 -0.000009 3.009450 4.462090 -34.059600 -22.291500 -0.000108 -0.000004 9.136290 5.341880 -1.134940 -2.192480 -6.469440 -0.000000 -175.100000 -15.268600 2.877290 39.081100 -0.000007 -0.000012 -0.137621 0.227272 31.196600 40.985400 -0.000006 -0.000013 1.790560 5.146640 -71.636500 11.754300 -0.000000 0.000003 -0.000196 -0.001822 -16.646300 -2.192510 6.469440 -0.000001 170.847000 20.435200 -177.007000 -39.081100 -0.002282 -0.040193 -0.210505 0.357968 30.849100 -40.985400 0.000008 0.000006 2.329390 15.797700 -70.535600 -11.754300 -0.000006 -0.000006 -0.002427 -0.033943 -17.953400
